# xmcd
#
# Track frame offsets:
# 150
# 16499
# 28595
# 41436
# 56387
# 71472
# 83643
# 100810
# 113322
# 126713
# 140794
# 152749
# 168090
# 182962
#
# Disc length: 2666 seconds
#
#
# Revision: 1
# Processed by: cddbd v1.5.1PL0 Copyright (c) Steve Scherf et al.
# Submitted via: FreeRIP 2.942 
#
DISCID=b30a680e
DTITLE=Various Artist - Clube da Viola - Raizes
DYEAR=2002
DGENRE=Country
TTITLE0=Goiano Valente - NENETE and DORINHO
TTITLE1=Passarinho do Peito Amarelo - TIBAGI and MILTINHO
TTITLE2=A Volta do Seresteiro - ZILO and ZALO
TTITLE3=No Colo da Noite - ZE DO RANCHO and ZE DO PINHO
TTITLE4=Viola Cabloca - TONICO and TINOCO
TTITLE5=Saudade de Goias - BELMONTE and AMARAI
TTITLE6=Mae Amorosa - ABEL and CAIM
TTITLE7=Cabelos Cor de Mel - TEODORO E SAMPAIO
TTITLE8=Muie Baixinha - LUIZINHO,LIMEIRA and ZEZINHA
TTITLE9=Berrante de Ouro - SILVEIRA and BARRINHA
TTITLE10=Abismo Cruel - SULINO and MARRUEIRO
TTITLE11=Adeus, Papai, Adeus Mamae - SILVEIRA and BARRINHA
TTITLE12=Peito Sadio - ZE CARREIRO E CARREIRINHO
TTITLE13=Amanheci em Teus Bracos - PEDRO BENTO and  ZE DA ESTRADA
EXTD=
EXTT0=
EXTT1=
EXTT2=
EXTT3=
EXTT4=
EXTT5=
EXTT6=
EXTT7=
EXTT8=
EXTT9=
EXTT10=
EXTT11=
EXTT12=
EXTT13=
PLAYORDER=
